<svg width="40" height="40" viewBox="0 0 40 40" fill="none" xmlns="http://www.w3.org/2000/svg">
<path d="M36.3739 0H3.62609C1.62344 0 0 1.62344 0 3.62609V36.3739C0 38.3766 1.62344 40 3.62609 40H36.3739C38.3766 40 40 38.3766 40 36.3739V3.62609C40 1.62344 38.3766 0 36.3739 0Z" fill="#DC395F"/>
<path d="M13.368 12.5852C14.6977 12.5852 15.8116 11.543 15.8116 10.177C15.8116 8.81205 14.6977 7.77002 13.368 7.77002C12.0383 7.77002 10.9247 8.81205 10.9247 10.177C10.9247 11.5428 12.0383 12.5852 13.368 12.5852Z" fill="white"/>
<path d="M8.30138 25.4788C8.15779 26.0897 8.08576 26.7494 8.08576 27.2876C8.08576 29.408 9.2356 30.8157 11.6792 30.8157C13.7058 30.8157 15.3487 29.6122 16.5317 27.669L15.8093 30.5679H19.8336L22.1336 21.343C22.7086 19.0074 23.8225 17.7951 25.5115 17.7951C26.8411 17.7951 27.6675 18.6219 27.6675 19.9869C27.6675 20.3824 27.6315 20.8132 27.4878 21.2805L26.3018 25.5207C26.1222 26.1316 26.0506 26.7429 26.0506 27.3174C26.0506 29.3304 27.2361 30.8027 29.7156 30.8027C31.8358 30.8027 33.5245 29.4379 34.4589 26.1677L32.8779 25.5574C32.0873 27.7482 31.4045 28.1443 30.8654 28.1443C30.3264 28.1443 30.0389 27.7852 30.0389 27.0669C30.0389 26.7435 30.1111 26.3846 30.2186 25.9524L31.3687 21.8215C31.6561 20.8515 31.764 19.9913 31.764 19.201C31.764 16.1107 29.8953 14.4979 27.6315 14.4979C25.5115 14.4979 23.3553 16.4102 22.2775 18.4229L23.0678 14.8104H16.9234L16.0609 17.9922H18.9358L17.1654 25.0797C15.7753 28.17 13.2217 28.2202 12.9012 28.1485C12.375 28.0297 12.0384 27.8299 12.0384 27.1461C12.0384 26.7516 12.1103 26.1849 12.29 25.5016L14.9853 14.8104H8.15779L7.29529 17.9922H10.1339L8.30154 25.4788" fill="white"/>
</svg>
