<svg width="40" height="40" viewBox="0 0 40 40" fill="none" xmlns="http://www.w3.org/2000/svg">
<path d="M36.2625 6.28753L29.055 2.81753C28.648 2.62128 28.19 2.55651 27.7445 2.63222C27.299 2.70792 26.8881 2.92034 26.5688 3.24003L2.97501 24.75C2.68874 25.0098 2.51739 25.3726 2.49864 25.7587C2.47988 26.1448 2.61527 26.5225 2.87501 26.8088C2.90626 26.8425 2.93751 26.875 2.97126 26.905L4.89751 28.655C5.14921 28.8841 5.4732 29.0178 5.81321 29.0329C6.15322 29.0479 6.48777 28.9434 6.75876 28.7375L35.1775 7.18753C35.3922 7.02465 35.648 6.92491 35.9163 6.89955C36.1845 6.87419 36.4546 6.92422 36.6959 7.044C36.9373 7.16377 37.1405 7.34855 37.2825 7.57752C37.4246 7.80649 37.4999 8.07057 37.5 8.34003V8.25628C37.5 7.84491 37.3838 7.4419 37.1649 7.09361C36.946 6.74533 36.6332 6.46592 36.2625 6.28753Z" fill="#0065A9"/>
<path d="M36.2625 33.7126L29.055 37.1838C28.6479 37.3795 28.19 37.444 27.7446 37.3683C27.2993 37.2926 26.8884 37.0805 26.5688 36.7613L2.97501 15.2501C2.68874 14.9903 2.51739 14.6275 2.49864 14.2414C2.47988 13.8553 2.61527 13.4776 2.87501 13.1913C2.90626 13.1576 2.93751 13.1251 2.97126 13.0951L4.89751 11.3451C5.14946 11.115 5.4742 10.9807 5.81505 10.9657C6.1559 10.9506 6.49122 11.0557 6.76251 11.2626L35.1775 32.8126C35.3922 32.9754 35.648 33.0752 35.9163 33.1005C36.1845 33.1259 36.4546 33.0759 36.6959 32.9561C36.9373 32.8363 37.1405 32.6515 37.2825 32.4226C37.4246 32.1936 37.4999 31.9295 37.5 31.6601V31.7501C37.4987 32.1603 37.3819 32.562 37.1631 32.909C36.9442 33.2561 36.6321 33.5345 36.2625 33.7126Z" fill="#007ACC"/>
<path d="M29.055 37.1837C28.6478 37.3794 28.19 37.4439 27.7446 37.3682C27.2992 37.2925 26.8884 37.0804 26.5687 36.7612C26.7482 36.9384 26.976 37.0586 27.2236 37.1069C27.4711 37.1552 27.7274 37.1293 27.9603 37.0325C28.1932 36.9358 28.3924 36.7724 28.5329 36.5629C28.6733 36.3535 28.7489 36.1072 28.75 35.855V4.14499C28.7502 3.8916 28.6752 3.64385 28.5345 3.43312C28.3938 3.22239 28.1937 3.05817 27.9595 2.96125C27.7254 2.86434 27.4678 2.83909 27.2193 2.88871C26.9708 2.93833 26.7427 3.06058 26.5637 3.23999C26.8831 2.92041 27.2939 2.70798 27.7393 2.63207C28.1848 2.55615 28.6427 2.62051 29.05 2.81624L36.2562 6.28124C36.6281 6.45874 36.9422 6.73776 37.1622 7.08611C37.3823 7.43446 37.4994 7.83794 37.5 8.24999V31.75C37.5001 32.1617 37.3838 32.5651 37.1647 32.9136C36.9455 33.2622 36.6323 33.5417 36.2612 33.72L29.055 37.1837Z" fill="#1F9CF0"/>
</svg>
